<svg width="11" height="17" viewBox="0 0 11 17" fill="none" xmlns="http://www.w3.org/2000/svg">
<path d="M6.73276 7.94914L6.29774 10.0511C6.85003 10.5769 7.65325 11.2099 7.96091 11.9217C8.17906 12.4267 8.90851 14.9978 8.93436 15.4927C9.00119 16.7896 7.32856 17.0594 6.8557 15.864C6.52975 15.04 6.43644 13.6183 6.05186 12.8851C5.88037 12.5579 5.29593 12.143 5.03113 11.858C4.73985 13.4166 3.83639 14.7853 3.16558 16.2032C2.72929 16.6672 2.02002 16.8337 1.53771 16.3281C0.948222 15.7102 1.39648 15.0299 1.67767 14.4001C1.97841 13.7274 2.61959 12.7085 2.80558 12.0604C3.04264 11.2351 3.2633 9.14387 3.32698 8.23159C3.33517 8.11621 3.32761 8.0002 3.32698 7.88609L2.54141 9.14829C1.89329 9.91493 0.724405 9.3803 0.963353 8.32616C1.24706 7.07279 3.29167 5.07735 4.53747 4.77662C4.94287 4.6789 5.95098 4.76527 6.35764 4.88758C7.00576 5.0824 7.74782 6.26705 8.27552 6.75251C8.85618 7.28714 10.4557 7.99012 9.87564 8.97932C9.21113 10.1129 7.84932 8.85827 7.20751 8.32489C7.12996 8.26059 6.80653 7.87285 6.73339 7.9485L6.73276 7.94914ZM1.89518 16.0633C2.18772 16.3066 2.67507 16.1402 2.87682 15.852C3.41713 14.5615 4.2235 13.3504 4.55891 11.986C4.61376 11.7628 4.59106 11.1084 4.87036 11.1027C4.98574 11.1153 5.07589 11.1815 5.15849 11.2559C5.35015 11.4293 6.3652 12.5036 6.45157 12.6732C6.85633 13.4619 6.92506 14.8244 7.28001 15.6906C7.59461 16.4586 8.54284 16.2694 8.4842 15.5009C8.44764 15.0268 7.76673 12.6026 7.56435 12.1285C7.27118 11.4432 6.44905 10.814 5.90874 10.3165C5.81858 10.2031 5.84254 10.0726 5.85452 9.94204C5.90874 9.3721 6.21452 8.07838 6.38348 7.50592C6.58523 6.8206 7.15959 7.6938 7.42439 7.91824C7.71566 8.16476 8.81709 9.06191 9.14556 9.00958C9.34038 8.97869 9.56987 8.69309 9.55158 8.49386C9.51754 8.1181 8.37828 7.4517 8.05485 7.16105C7.61353 6.76512 6.71952 5.5004 6.28702 5.33522C6.09221 5.26145 5.41446 5.18264 5.18686 5.17445C4.20144 5.13914 2.88061 6.19896 2.28607 6.93787C2.01939 7.26949 0.820237 8.92384 1.71739 9.02345C2.30562 9.08902 2.35732 8.52727 2.60761 8.14143C2.74127 7.93463 3.58232 6.57976 3.86666 6.99839L3.89944 7.1579L3.24565 12.1216L1.71802 15.3855C1.62219 15.569 1.75333 15.9447 1.89518 16.0626V16.0633Z" fill="#8F7C7C" stroke="#8F7C7C" stroke-width="0.3" stroke-miterlimit="10"/>
<path d="M4.48478 3.95427C2.85313 2.40584 5.346 -0.121073 6.92091 1.54967C8.41133 3.13025 6.09688 5.48442 4.48478 3.95427ZM5.58368 1.46771C3.97284 1.59443 4.11911 4.12261 5.81759 3.9776C7.40889 3.84142 7.20399 1.34035 5.58368 1.46771Z" fill="#8F7C7C" stroke="#8F7C7C" stroke-width="0.3" stroke-miterlimit="10"/>
</svg>
